<svg id="_x31__x2C_5" enable-background="new 0 0 24 24" height="512" viewBox="0 0 24 24" width="512" xmlns="http://www.w3.org/2000/svg"><path d="m20.672 3.563h-17.344c-1.422 0-2.578 1.156-2.578 2.578v11.719c0 1.422 1.156 2.578 2.578 2.578h17.344c1.422 0 2.578-1.156 2.578-2.578v-11.719c0-1.422-1.156-2.578-2.578-2.578z" fill="#2196f3"/><path d="m21.25 21h-18.5c-1.517 0-2.75-1.233-2.75-2.75v-12.5c0-1.517 1.233-2.75 2.75-2.75h18.5c1.517 0 2.75 1.233 2.75 2.75v12.5c0 1.517-1.233 2.75-2.75 2.75zm-18.5-16.5c-.689 0-1.25.561-1.25 1.25v12.5c0 .689.561 1.25 1.25 1.25h18.5c.689 0 1.25-.561 1.25-1.25v-12.5c0-.689-.561-1.25-1.25-1.25z"/><path d="m12.25 15h-.5c-.965 0-1.75-.785-1.75-1.75v-2.5c0-.965.785-1.75 1.75-1.75h.5c.965 0 1.75.785 1.75 1.75v2.5c0 .965-.785 1.75-1.75 1.75zm-.5-4.5c-.138 0-.25.112-.25.25v2.5c0 .138.112.25.25.25h.5c.138 0 .25-.112.25-.25v-2.5c0-.138-.112-.25-.25-.25z"/><path d="m13.25 15c-.192 0-.384-.073-.53-.22l-1-1c-.293-.293-.293-.768 0-1.061s.768-.293 1.061 0l1 1c.293.293.293.768 0 1.061-.147.147-.339.22-.531.22z"/><path d="m6.208 15h-1.458c-.414 0-.75-.336-.75-.75s.336-.75.75-.75h1.458c.158 0 .292-.172.292-.375s-.134-.375-.292-.375h-.416c-.988 0-1.792-.841-1.792-1.875s.804-1.875 1.792-1.875h1.458c.414 0 .75.336.75.75s-.336.75-.75.75h-1.458c-.158 0-.292.172-.292.375s.134.375.292.375h.416c.988 0 1.792.841 1.792 1.875s-.804 1.875-1.792 1.875z"/><path d="m19.25 15h-2.5c-.414 0-.75-.336-.75-.75v-4.5c0-.414.336-.75.75-.75s.75.336.75.75v3.75h1.75c.414 0 .75.336.75.75s-.336.75-.75.75z"/></svg>