<?xml version="1.0" encoding="UTF-8"?>
<svg id="Capa_1" data-name="Capa 1" xmlns="http://www.w3.org/2000/svg" viewBox="0 0 189.55 126.46">
  <defs>
    <style>
      .cls-1 {
        fill: #04e3a8;
      }
    </style>
  </defs>
  <path class="cls-1" d="m0,126.46L49.29,0h18.08l52.34,126.46h-19.35l-14.87-38.3H31.72l-13.89,38.3H0Zm36.67-51.93h43.54l-13.28-35.02c-4.11-10.75-7.12-19.49-9.03-26.22-1.65,8.11-3.98,16.16-7,24.15l-14.22,37.09Z"/>
  <path class="cls-1" d="m167.22,92.04c-3.83-5.92-8.26-11.3-13.29-16.13-2.48-2.37-6.1-4.71-10.84-7.03,11.69-1.61,20.61-5.37,26.74-11.29,6.13-5.92,9.2-13.65,9.2-23.19,0-7.24-1.81-13.61-5.42-19.09-3.61-5.49-8.24-9.41-13.87-11.77C154.09,1.18,145.36,0,133.52,0h-36.36v13.97h37c9.07,0,15.91,1.83,20.52,5.48,4.61,3.65,6.91,8.67,6.91,15.05,0,4.43-1.21,8.31-3.62,11.65-2.41,3.34-5.67,5.78-9.78,7.33-4.11,1.55-10.14,2.33-18.07,2.33h-32.96v14.49h16.14c5.67,0,10.07.62,13.22,1.86,3.15,1.24,6.41,3.64,9.77,7.21s8.35,10.5,14.95,20.79l17.04,26.29h21.26l-22.33-34.42Z"/>
</svg>